<svg width="214" height="73" viewBox="0 0 214 73" fill="none" xmlns="http://www.w3.org/2000/svg">
<path d="M25.2796 51.309V39.9972H0.142173V51.309H25.2796ZM64.5363 71V1.13902H51.5486L29.5534 23.239L38.0373 32.1418L49.6633 20.3063V71H64.5363ZM103.932 72.2569C123.833 72.2569 132.84 54.137 132.84 36.1219C132.84 18.1068 123.833 0.0916261 103.932 0.0916261C83.9269 0.0916261 75.0241 18.1068 75.0241 36.1219C75.0241 54.137 83.9269 72.2569 103.932 72.2569ZM103.932 59.0597C93.8771 59.0597 90.1065 49.0048 90.1065 36.1219C90.1065 23.239 93.8771 13.2888 103.932 13.2888C113.882 13.2888 117.653 23.239 117.653 36.1219C117.653 49.0048 113.882 59.0597 103.932 59.0597ZM156.838 34.865C167.626 34.865 174.643 27.4285 174.643 17.6878C174.643 7.84232 167.626 0.0916261 156.838 0.0916261C146.154 0.0916261 139.137 7.84232 139.137 17.6878C139.137 27.4285 146.154 34.865 156.838 34.865ZM157.885 71L202.609 1.13902H194.648L150.03 71H157.885ZM195.277 72.2569C205.96 72.2569 213.082 64.7157 213.082 54.9749C213.082 45.1294 205.96 37.3787 195.277 37.3787C184.593 37.3787 177.576 45.1294 177.576 54.9749C177.576 64.7157 184.593 72.2569 195.277 72.2569ZM156.838 26.6954C152.124 26.6954 148.563 23.1342 148.563 17.6878C148.563 11.8224 152.124 8.36601 156.838 8.36601C161.656 8.36601 165.112 11.8224 165.112 17.6878C165.112 23.1342 161.656 26.6954 156.838 26.6954ZM195.277 64.0872C190.459 64.0872 187.002 60.6308 187.002 54.9749C187.002 49.2143 190.459 45.6531 195.277 45.6531C200.095 45.6531 203.656 49.2143 203.656 54.9749C203.656 60.6308 200.095 64.0872 195.277 64.0872Z" fill="#EFF5FF"/>
</svg>
