<svg width="47" height="47" viewBox="0 0 47 47" fill="none" xmlns="http://www.w3.org/2000/svg">
<path d="M23.5 6.65217L23.4982 6.65218C22.6396 6.65521 21.6374 6.76129 20.669 6.89648L20.0684 6.98033C21.1765 6.75096 22.3243 6.63043 23.5 6.63043C32.8108 6.63043 40.3696 14.1893 40.3696 23.5C40.3696 32.8107 32.8108 40.3696 23.5 40.3696C14.1892 40.3696 6.63043 32.8107 6.63043 23.5C6.63043 20.6959 7.31604 18.0507 8.52863 15.723C8.45232 15.8778 8.37886 16.034 8.30833 16.1914L8.10223 16.6513L8.56373 16.8537C10.2153 17.5783 12.379 18.4481 14.3556 18.9555L14.3572 18.9559C14.5552 19.0061 14.7637 19.0581 14.9805 19.1078C14.8123 19.0736 14.6456 19.0385 14.4812 19.004C14.4333 18.9939 14.3856 18.9839 14.3381 18.9739C12.3542 18.4634 10.224 17.6069 8.56637 16.8798L8.09591 16.6734L7.90236 17.1493C7.3505 18.5061 6.96521 19.9518 6.7835 21.4606L6.72257 21.9666L7.22964 22.0178C9.12042 22.2089 11.3443 22.5042 13.291 22.9798C14.969 23.3942 16.7289 23.891 17.7069 25.2996L17.6441 25.2145C17.1078 24.4883 16.3653 24.0467 15.6032 23.7331C15.0367 23.4999 14.4206 23.3237 13.8495 23.1605C13.6654 23.1078 13.486 23.0566 13.3144 23.0051L13.3021 23.0014L13.2895 22.9984C11.3577 22.5263 9.11506 22.2342 7.23423 22.0446L6.71487 21.9923L6.68493 22.5134C6.66654 22.8334 6.65217 23.1661 6.65217 23.5C6.65217 28.0627 8.46722 32.1982 11.407 35.2308L11.6958 35.5287L12.0418 35.2998C13.6257 34.2521 15.3044 32.2475 16.4298 30.2952L16.4307 30.2936C16.4966 30.1784 16.5639 30.0593 16.6318 29.9367C16.5918 30.0143 16.5521 30.0912 16.5128 30.1673C16.4869 30.2175 16.4612 30.2673 16.4357 30.3168C15.3336 32.2257 13.7828 34.0942 12.2138 35.1915L11.701 35.5501L12.164 35.9711C13.2613 36.9691 14.5021 37.8233 15.8325 38.5048L16.3391 38.7643L16.5312 38.2285C17.1316 36.5532 18.269 34.686 19.5288 33.1398C20.5812 31.8571 21.8038 30.5162 23.4073 30.1585L23.3607 30.172C21.7438 30.6411 20.6633 31.8759 19.6772 33.0029C19.6393 33.0462 19.6015 33.0894 19.5639 33.1324L19.5579 33.1391L19.5523 33.1461C18.2788 34.709 17.0944 36.6748 16.5142 38.3425L16.3617 38.7806L16.7872 38.9654C18.844 39.8589 21.1165 40.3478 23.5 40.3478C25.8835 40.3478 28.1552 39.8589 30.2127 38.9654L30.6336 38.7827L30.4876 38.3477C29.9267 36.6768 28.8634 34.7197 27.6464 33.155C26.9742 32.2908 26.2396 31.5549 25.5394 31.0301C24.861 30.5216 24.1373 30.1522 23.5 30.1522H23.436C23.4712 30.1446 23.5067 30.1375 23.5424 30.1308C24.1879 30.1431 24.8609 30.4342 25.5607 30.9666C26.2742 31.5094 26.9767 32.2738 27.6553 33.1463C28.8591 34.6941 29.9057 36.5556 30.483 38.2233L30.6714 38.7675L31.1838 38.5046C32.5114 37.8234 33.743 36.9646 34.836 35.9712L35.2983 35.5511L34.7871 35.1921C33.2188 34.0906 31.6615 32.2317 30.5589 30.3231C29.7221 28.8602 28.9361 27.1838 29.246 25.5491C28.9897 27.3213 29.8167 28.8912 30.5797 30.2996L30.5796 30.2997L30.5864 30.3115C31.711 32.2583 33.3821 34.2465 34.9562 35.2985L35.3027 35.5301L35.5929 35.2309C38.5348 32.1982 40.3478 28.0626 40.3478 23.5C40.3478 23.1658 40.3335 22.8337 40.3151 22.5134L40.285 21.9916L39.7651 22.0447C37.9001 22.2353 35.7749 22.5467 33.7223 22.9956L33.7223 22.9954L33.7091 22.9987C33.5638 23.0346 33.4131 23.0721 33.2585 23.1119C33.4141 23.0669 33.5684 23.0222 33.7204 22.977C35.6644 22.503 37.8833 22.2086 39.7704 22.0178L40.2775 21.9666L40.2165 21.4605C40.0388 19.9862 39.6822 18.5676 39.1465 17.2314L38.9544 16.7523L38.4816 16.9596C36.8171 17.6895 34.6781 18.5333 32.674 19.0228C31.0316 19.4186 29.2747 19.7172 27.8067 18.8875C27.2142 18.3986 26.842 17.6229 26.5917 16.6807C26.5257 16.4323 26.4696 16.1783 26.4205 15.9217C26.6519 16.94 27.0477 17.9617 27.7636 18.8099L27.8262 18.884L27.9119 18.9293C28.6869 19.3392 29.5153 19.4257 30.3148 19.3803C31.0334 19.3395 31.7645 19.1886 32.4356 19.0502C32.5031 19.0362 32.57 19.0224 32.6363 19.0089L32.6455 19.007L32.6546 19.0048C34.6392 18.5202 36.82 17.6554 38.4679 16.9335L38.9407 16.7264L38.7187 16.2605C36.5531 11.7152 32.4101 8.29856 27.3988 7.11262L26.9296 7.00159L26.9308 6.99824L26.8763 6.98898L26.7836 6.96705V6.97322L26.3457 6.89875C25.4217 6.74161 24.4737 6.65217 23.5 6.65217ZM14.3335 9.33903C16.0533 8.22287 17.9888 7.41141 20.0633 6.98137L20.2666 7.55793C20.8722 9.2757 21.0604 11.5902 20.8943 13.754C20.7462 15.5995 20.4409 17.5724 19.1477 18.9225C18.5998 19.3126 17.8589 19.4359 16.9916 19.3957C16.7968 19.3867 16.5998 19.3697 16.4018 19.3468C17.2809 19.4267 18.208 19.3587 19.0735 18.9365L19.1596 18.8945L19.2241 18.8236C20.4171 17.5125 20.6409 15.7156 20.8349 14.1578C20.8509 14.0294 20.8667 13.9025 20.8828 13.7777L20.8844 13.7649L20.8854 13.752C21.0547 11.5489 20.8115 9.10031 20.1847 7.42406L19.6967 7.51233L19.6058 7.11166C17.7419 7.53439 15.9495 8.3021 14.3335 9.33903ZM17.733 25.4177L17.7117 25.3066C17.7124 25.3075 17.713 25.3084 17.7136 25.3093C17.9964 25.9603 17.9247 26.7688 17.6327 27.6757C17.5639 27.8894 17.4847 28.1031 17.3984 28.3156C17.7331 27.4173 17.9261 26.4286 17.733 25.4177ZM29.3097 25.2707C29.3116 25.2638 29.3135 25.2568 29.3154 25.2499C29.6382 24.648 30.2661 24.2029 31.0869 23.8417C31.3017 23.7472 31.5232 23.661 31.7484 23.5809C30.8706 23.9206 30.0062 24.4118 29.3698 25.1966L29.3097 25.2707ZM26.1147 13.7542C26.1194 13.8125 26.1244 13.8713 26.1295 13.9307C26.1213 13.8673 26.1131 13.8043 26.1048 13.7415C25.9403 11.5814 26.1289 9.27241 26.7334 7.55794L26.7836 7.4156V7.51057C26.1803 9.18383 25.9481 11.5866 26.1146 13.7522L26.1147 13.7542ZM0.5 23.5C0.5 10.8035 10.8035 0.5 23.5 0.5C36.1965 0.5 46.5 10.8035 46.5 23.5C46.5 36.1965 36.1965 46.5 23.5 46.5C10.8035 46.5 0.5 36.1965 0.5 23.5ZM46.4783 23.5C46.4783 10.8034 36.1966 0.521739 23.5 0.521739C10.8034 0.521739 0.521739 10.8034 0.521739 23.5C0.521739 36.1966 10.8034 46.4783 23.5 46.4783C36.1966 46.4783 46.4783 36.1966 46.4783 23.5ZM22.9783 19.413C22.9783 19.1249 23.2118 18.8913 23.5 18.8913C23.7882 18.8913 24.0217 19.1249 24.0217 19.413C24.0217 19.7012 23.7882 19.9348 23.5 19.9348C23.2118 19.9348 22.9783 19.7012 22.9783 19.413ZM18.8913 22.4783C18.8913 22.1901 19.1249 21.9565 19.413 21.9565C19.7012 21.9565 19.9348 22.1901 19.9348 22.4783C19.9348 22.7664 19.7012 23 19.413 23C19.1249 23 18.8913 22.7664 18.8913 22.4783ZM27.0652 22.4783C27.0652 22.1901 27.2988 21.9565 27.587 21.9565C27.8751 21.9565 28.1087 22.1901 28.1087 22.4783C28.1087 22.7664 27.8751 23 27.587 23C27.2988 23 27.0652 22.7664 27.0652 22.4783ZM20.4239 27.587C20.4239 27.2988 20.6575 27.0652 20.9457 27.0652C21.2338 27.0652 21.4674 27.2988 21.4674 27.587C21.4674 27.8751 21.2338 28.1087 20.9457 28.1087C20.6575 28.1087 20.4239 27.8751 20.4239 27.587ZM25.5326 27.587C25.5326 27.2988 25.7662 27.0652 26.0543 27.0652C26.3425 27.0652 26.5761 27.2988 26.5761 27.587C26.5761 27.8751 26.3425 28.1087 26.0543 28.1087C25.7662 28.1087 25.5326 27.8751 25.5326 27.587Z" fill="black" stroke="#1951A0"/>
</svg>
